<svg width="243" height="29" viewBox="0 0 243 29" fill="none" xmlns="http://www.w3.org/2000/svg">
<path d="M6.51147 23.1211H1.53322V9.28421H6.37897C10.4676 9.28421 13.2879 12.1046 13.2879 16.231C13.2879 20.3007 10.5244 23.1211 6.51147 23.1211ZM6.15183 11.5178H3.9561V20.8875H6.28433C9.04792 20.8875 10.7326 19.1082 10.7326 16.231C10.7326 13.2971 9.01006 11.5178 6.15183 11.5178ZM19.3874 23.3672C16.6049 23.3672 14.6552 21.3418 14.6552 18.4457C14.6552 15.5118 16.567 13.4864 19.3117 13.4864C22.1132 13.4864 23.8925 15.3603 23.8925 18.2753V18.9757L16.851 18.9946C17.0213 20.6414 17.8921 21.4743 19.4253 21.4743C20.6935 21.4743 21.5264 20.9822 21.7914 20.0925H23.9303C23.5328 22.1368 21.8292 23.3672 19.3874 23.3672ZM19.3306 15.3793C17.9678 15.3793 17.1349 16.1175 16.9078 17.5182H21.6021C21.6021 16.231 20.7124 15.3793 19.3306 15.3793ZM25.0214 20.2818H27.2171C27.236 21.0957 27.8418 21.6068 28.9018 21.6068C29.9807 21.6068 30.5675 21.1714 30.5675 20.49C30.5675 20.0168 30.3214 19.6761 29.4885 19.4868L27.8039 19.0893C26.1192 18.7107 25.3053 17.9157 25.3053 16.4203C25.3053 14.5842 26.8575 13.4864 29.0153 13.4864C31.1164 13.4864 32.5361 14.6978 32.555 16.515H30.3593C30.3403 15.72 29.8103 15.2089 28.9207 15.2089C28.0121 15.2089 27.4821 15.6253 27.4821 16.3257C27.4821 16.8557 27.8985 17.1964 28.6935 17.3857L30.3782 17.7832C31.9493 18.1428 32.7443 18.8621 32.7443 20.3007C32.7443 22.1936 31.1353 23.3672 28.826 23.3672C26.4978 23.3672 25.0214 22.1179 25.0214 20.2818ZM35.6572 11.8964C34.8622 11.8964 34.2376 11.2717 34.2376 10.4957C34.2376 9.71957 34.8622 9.11386 35.6572 9.11386C36.4144 9.11386 37.039 9.71957 37.039 10.4957C37.039 11.2717 36.4144 11.8964 35.6572 11.8964ZM34.5026 23.1211V13.7703H36.8119V23.1211H34.5026ZM38.6678 18.2375C38.6678 15.5118 40.4471 13.4675 43.116 13.4675C44.5168 13.4675 45.6146 14.0542 46.1635 15.0575L46.2961 13.7703H48.435V22.6479C48.435 25.7711 46.5611 27.7208 43.5325 27.7208C40.8446 27.7208 39.0085 26.1875 38.7246 23.689H41.0339C41.1853 24.9004 42.1128 25.6197 43.5325 25.6197C45.1225 25.6197 46.1446 24.6165 46.1446 23.0643V21.5122C45.5578 22.3829 44.4032 22.9318 43.0592 22.9318C40.4092 22.9318 38.6678 20.9443 38.6678 18.2375ZM40.996 18.1807C40.996 19.7518 41.9992 20.9254 43.5135 20.9254C45.1035 20.9254 46.0878 19.8086 46.0878 18.1807C46.0878 16.5907 45.1225 15.4928 43.5135 15.4928C41.9803 15.4928 40.996 16.6475 40.996 18.1807ZM53.1342 23.1211H50.8249V13.7703H52.9638L53.1531 14.9818C53.7399 14.0353 54.8756 13.4864 56.1439 13.4864C58.491 13.4864 59.7024 14.9439 59.7024 17.3668V23.1211H57.3931V17.9157C57.3931 16.3446 56.6171 15.5875 55.4246 15.5875C54.0049 15.5875 53.1342 16.5718 53.1342 18.0861V23.1211ZM76.3053 23.1211L75.3778 22.08C74.2799 22.9129 72.8792 23.3672 71.2135 23.3672C68.2038 23.3672 66.1784 21.7772 66.1784 19.4489C66.1784 17.7643 67.2763 16.3825 69.3963 15.3603C68.3174 14.111 67.9009 13.2592 67.9009 12.2182C67.9009 10.3821 69.3963 9.05707 71.4406 9.05707C73.466 9.05707 74.8667 10.3064 74.8667 12.1046C74.8667 13.4864 74.1285 14.5842 72.406 15.7389L75.1885 18.8621C75.4346 18.1996 75.5671 17.4046 75.5671 16.496H77.8196C77.8196 18.105 77.441 19.4868 76.7406 20.5846L78.9932 23.1211H76.3053ZM70.0967 12.1992C70.0967 12.8807 70.3995 13.4485 71.2892 14.4707C72.2545 13.9028 72.7278 13.1267 72.7278 12.1803C72.7278 11.3664 72.2356 10.8932 71.4406 10.8932C70.6077 10.8932 70.0967 11.3853 70.0967 12.1992ZM68.6202 19.2218C68.6202 20.5657 69.6992 21.3797 71.4785 21.3797C72.5195 21.3797 73.3713 21.0957 74.0338 20.5657L70.5131 16.6096C69.207 17.3478 68.6202 18.1428 68.6202 19.2218ZM90.1009 23.1211H85.1227V9.28421H89.9684C94.057 9.28421 96.8774 12.1046 96.8774 16.231C96.8774 20.3007 94.1138 23.1211 90.1009 23.1211ZM89.7413 11.5178H87.5455V20.8875H89.8738C92.6374 20.8875 94.322 19.1082 94.322 16.231C94.322 13.2971 92.5995 11.5178 89.7413 11.5178ZM102.977 23.3672C100.194 23.3672 98.2447 21.3418 98.2447 18.4457C98.2447 15.5118 100.156 13.4864 102.901 13.4864C105.703 13.4864 107.482 15.3603 107.482 18.2753V18.9757L100.44 18.9946C100.611 20.6414 101.481 21.4743 103.015 21.4743C104.283 21.4743 105.116 20.9822 105.381 20.0925H107.52C107.122 22.1368 105.419 23.3672 102.977 23.3672ZM102.92 15.3793C101.557 15.3793 100.724 16.1175 100.497 17.5182H105.192C105.192 16.231 104.302 15.3793 102.92 15.3793ZM111.573 23.1211L107.863 13.7703H110.324L111.952 18.0671C112.35 19.1839 112.671 20.1493 112.785 20.6604C112.917 20.0736 113.258 19.0893 113.656 18.0671L115.359 13.7703H117.744L113.845 23.1211H111.573ZM126.313 23.1211H124.174V9.03814H126.483V15.1332C127.089 14.0921 128.338 13.4675 129.758 13.4675C132.427 13.4675 134.054 15.5496 134.054 18.5025C134.054 21.3797 132.294 23.3672 129.606 23.3672C128.205 23.3672 127.013 22.7425 126.464 21.6636L126.313 23.1211ZM126.502 18.4078C126.502 20.0925 127.543 21.2472 129.133 21.2472C130.761 21.2472 131.726 20.0736 131.726 18.4078C131.726 16.7421 130.761 15.5496 129.133 15.5496C127.543 15.5496 126.502 16.7232 126.502 18.4078ZM134.728 27.4558V25.525H136.11C137.018 25.525 137.586 25.3168 137.984 24.219L138.249 23.5186L134.482 13.7703H136.924L139.328 20.5846L141.864 13.7703H144.249L139.668 25.2033C138.968 26.9447 137.984 27.664 136.45 27.664C135.807 27.664 135.239 27.5883 134.728 27.4558Z" fill="white"/>
<path d="M152.556 9.62357V21.2269H158.348V23.4604H150.133V9.62357H152.556ZM162.76 23.7065C160.773 23.7065 159.561 22.5519 159.561 20.7915C159.561 19.069 160.811 17.9901 163.025 17.8197L165.827 17.6115V17.4033C165.827 16.135 165.07 15.624 163.896 15.624C162.533 15.624 161.776 16.1918 161.776 17.1761H159.807C159.807 15.1507 161.473 13.8257 164.01 13.8257C166.527 13.8257 168.079 15.1886 168.079 17.7818V23.4604H166.054L165.884 22.0787C165.486 23.044 164.218 23.7065 162.76 23.7065ZM163.517 21.9651C164.937 21.9651 165.846 21.1133 165.846 19.6747V19.1826L163.896 19.334C162.457 19.4665 161.908 19.9397 161.908 20.6969C161.908 21.5487 162.476 21.9651 163.517 21.9651ZM183.362 17.8008H178.213V23.4604H175.79V9.62357H184.346V11.8572H178.213V15.624H183.362V17.8008ZM188.518 23.4604H186.227V9.3775H188.518V23.4604ZM195.123 23.7065C192.341 23.7065 190.391 21.6812 190.391 18.7851C190.391 15.8511 192.303 13.8257 195.048 13.8257C197.849 13.8257 199.628 15.6997 199.628 18.6147V19.3151L192.587 19.334C192.757 20.9808 193.628 21.8137 195.161 21.8137C196.43 21.8137 197.262 21.3215 197.527 20.4319H199.666C199.269 22.4762 197.565 23.7065 195.123 23.7065ZM195.067 15.7186C193.704 15.7186 192.871 16.4568 192.644 17.8576H197.338C197.338 16.5704 196.448 15.7186 195.067 15.7186ZM207.818 14.1097H210.127V23.4604H207.988L207.818 22.2112C207.25 23.1008 206.039 23.7065 204.789 23.7065C202.631 23.7065 201.363 22.249 201.363 19.9586V14.1097H203.672V19.1447C203.672 20.924 204.373 21.6433 205.66 21.6433C207.117 21.6433 207.818 20.7915 207.818 19.0122V14.1097ZM218.38 14.0718V16.2108H217.528C215.863 16.2108 214.822 17.1004 214.822 18.9176V23.4604H212.512V14.1286H214.689L214.822 15.4915C215.219 14.564 216.109 13.9393 217.358 13.9393C217.68 13.9393 218.002 13.9772 218.38 14.0718Z" fill="white"/>
<path d="M223.978 4.76889C226.279 3.58673 229.069 4.36381 230.447 6.48861C230.822 6.09576 231.268 5.75669 231.778 5.49447C234.231 4.23418 237.242 5.20082 238.503 7.65365C239.763 10.1067 238.796 13.1176 236.343 14.3783C235.52 14.8015 234.633 14.9721 233.771 14.9212C234.561 17.2287 233.562 19.8269 231.329 20.9749C228.876 22.2355 225.865 21.2688 224.604 18.8158C223.787 17.2258 223.906 15.4021 224.758 13.972C223.532 13.5849 222.453 12.7277 221.819 11.4935C220.558 9.04045 221.525 6.02958 223.978 4.76889ZM231.457 10.8792C231.122 9.8688 230.032 9.3203 229.021 9.65463C228.011 9.98907 227.463 11.0797 227.797 12.0902C228.132 13.1005 229.222 13.6489 230.232 13.3148C231.243 12.9804 231.791 11.8898 231.457 10.8792Z" fill="white"/>
</svg>
